<?xml version="1.0"?>
<svg xmlns="http://www.w3.org/2000/svg" xmlns:xlink="http://www.w3.org/1999/xlink" data-noselect="" viewBox="0 0 800 600" width="1600" height="1200" preserveAspectRatio="none" version="1.1"><defs/> <g id="background" data-noselect=""><rect fill="#ffffff" width="800" height="600" data-noselect=""/> <!----></g> <g id="shape_NEKnHgTApv" transform="translate(340.5,186.01768571381) rotate(0,59.5,59.5) scale(1,1)" filter="" style="cursor: move; opacity: 1;"><g><svg xmlns="http://www.w3.org/2000/svg" xmlns:xlink="http://www.w3.org/1999/xlink" version="1.1" id="&#x56FE;&#x5C42;_1" x="0px" y="0px" viewBox="0 0 194.9 194.9" style="enable-background:new 0 0 194.9 194.9;" xml:space="preserve" width="119" height="119" class="style-removed" preserveAspectRatio="none" data-parent="shape_NEKnHgTApv">

<g>
	<path d="M191.4,114.5c-1.1-0.2-2.1,0.5-2.4,1.6c-2,9.8-5.5,19.1-10.4,27.7l-0.4,0.7c-16.7,28.6-47.6,46.3-80.7,46.3   c-14.1,0-27.8-3.2-40.4-9.2c2.3,0.2,4.6,0.3,7,0.3c19.2,0,37.8-5.6,53.8-16.2c0.9-0.6,1.2-1.9,0.6-2.8c-0.6-0.9-1.9-1.2-2.8-0.6   C100.3,172.6,82.4,178,64,178c-5.5,0-11-0.5-16.3-1.4l-0.1,0c-0.4-0.3-0.9-0.6-1.3-0.9c-0.9-0.6-2.2-0.3-2.8,0.6   c-0.6,0.9-0.3,2.2,0.6,2.8c0.6,0.4,2.3,1.5,2.3,1.5h0c15.3,9.4,32.9,14.4,51,14.4c34.1,0,66-18.1,83.6-47.3l0.9-1.5   c5.3-9.1,9-18.9,11.1-29.2C193.2,115.8,192.5,114.7,191.4,114.5z" fill="#3E3A39" stroke-width="0"/>
	<path d="M114.8,1.6c-5.7-1-11.5-1.6-17.4-1.6C83.3,0,69.6,3,56.8,8.9l0,0c-0.7,0.3-1.2,1-1.2,1.8c0,1.1,0.9,2,2,2   c0.4,0,0.7-0.1,1-0.3l0,0C70.8,6.8,83.9,4,97.4,4c5.6,0,11.2,0.5,16.7,1.5c41.4,7.5,72.2,41.4,76.3,82.6   c-8.2-16-20.8-29.7-36.3-39.1c-0.9-0.6-2.2-0.3-2.7,0.7c-0.6,0.9-0.3,2.2,0.7,2.7c17.7,10.8,31.6,27.3,38.9,46.6c0,0,0,0.1,0,0.1   c0.1,0.2,0.1,0.3,0.2,0.5c0,0,0,0,0,0c0.4,0.5,0.9,0.9,1.6,0.9c0,0,0,0,0,0c1.1,0,2-0.9,2-2l0-0.4c0-0.2,0-0.4,0-0.6   C194.9,50.2,161.2,9.9,114.8,1.6z" fill="#3E3A39" stroke-width="0"/>
	<path d="M42.9,19.1c-0.7-0.9-1.9-1.1-2.8-0.4l-1.6,1.2v0C14,38.4,0,66.7,0,97.4c0,11.8,2.1,23.4,6.2,34.3l0.1,0.4   c4.9,13,12.5,24.6,22.4,34.5c0.4,0.4,0.9,0.6,1.4,0.6c0.5,0,1-0.2,1.4-0.6c0.8-0.8,0.8-2,0-2.8c-9.3-9.2-16.7-20.5-21.3-32.7   l-0.1-0.4C6,120.1,4,108.9,4,97.4c0-26.6,10.9-51.2,30.3-68.8c-5.7,12.6-8.7,26.4-8.7,40.3c0,1.7,0,3.5,0.1,5.3   c0.1,1.1,0.9,1.9,2,1.9c0,0,0.1,0,0.1,0c1.1-0.1,2-1,1.9-2.1c-0.1-1.7-0.1-3.4-0.1-5.1c0-16.4,4.3-32.6,12.5-46.8l0.4-0.3   C43.4,21.2,43.6,20,42.9,19.1z" fill="#3E3A39" stroke-width="0"/>
</g>
</svg></g></g><g id="shape_gdMCszaPxo" transform="translate(300.99,-28.12771287258002) rotate(0,99.01,267.67943) scale(1,1)" filter="" style="cursor: move; opacity: 1;"><g><svg xmlns="http://www.w3.org/2000/svg" xmlns:xlink="http://www.w3.org/1999/xlink" version="1.1" width="344.04" height="535.35886" viewBox="0 0 344.04 535.35886" data-parent="shape_gdMCszaPxo"><g data-width="51.107000000000006" transform="translate(73.4565, 0)"><path d="M46.73-8.69L46.73-8.69Q48.92-4.75 49.65-1.75L49.65-1.75Q48.26-0.58 42.27-0.58L42.27-0.58L37.67-0.66Q37.67-2.63 35.34-11.17L35.34-11.17Q35.04-12.27 34.46-14.49Q33.88-16.72 33.88-17.30L33.88-17.30Q33.66-17.30 31.32-17.16L31.32-17.16Q26.72-16.87 15.48-16.43L15.48-16.43Q14.46-13.51 13.51-10.00L13.51-10.00Q12.63-6.86 11.86-4.75Q11.10-2.63 9.78 0L9.78 0Q7.01 0.07 3.94-0.66Q0.88-1.39 0.29-1.97L0.29-1.97Q2.41-4.60 9.09-20.08Q15.77-35.56 21.03-48.62L21.03-48.62Q21.25-49.28 20.99-49.61Q20.73-49.94 20.00-50.45L20.00-50.45Q18.76-51.33 18.18-52.06L18.18-52.06Q18.98-52.42 20.88-52.64Q22.78-52.86 24.75-52.86L24.75-52.86Q29.35-52.86 29.64-51.76L29.64-51.76Q30.66-48.33 38.15-29.46Q45.63-10.59 46.73-8.69L46.73-8.69ZM30.74-25.92L30.74-25.92Q29.93-28.69 28.07-35.12Q26.21-41.54 25.85-42.42L25.85-42.42Q19.93-28.98 19.13-26.79L19.13-26.79L17.52-22.05Q18.54-21.98 20.22-21.98L20.22-21.98Q21.25-21.98 25.48-22.27L25.48-22.27L31.61-22.78L30.74-25.92ZM20.44-19.71L20.44-19.71Q19.57-19.86 19.13-20.22L19.13-20.22L18.33-20.22Q18.18-19.93 18.14-19.79Q18.11-19.64 17.96-19.57L17.96-19.57L17.96-19.27Q18.84-19.27 19.13-19.49L19.13-19.49L20.44-19.71ZM43.95-9.56L43.95-9.56Q43.95-9.78 44.03-9.86L44.03-9.86Q43.81-10.08 43.51-10.48Q43.22-10.88 43.08-11.02L43.08-11.02L42.35-11.02L42.13-10.73Q42.05-10.73 42.09-10.66Q42.13-10.59 42.13-10.44L42.13-10.44Q42.27-10.08 42.60-9.75Q42.93-9.42 43.08-9.13L43.08-9.13Q43.44-9.20 43.62-9.27Q43.81-9.35 43.95-9.56L43.95-9.56ZM46.14-6.35L46.14-6.35Q46.22-6.42 46.22-6.50Q46.22-6.57 46.14-6.79L46.14-6.79Q45.49-6.57 45.27-6.35Q45.05-6.13 44.76-5.55L44.76-5.55Q44.97-5.69 45.49-5.91Q46.00-6.13 46.14-6.35L46.14-6.35Z" transform="translate(0 295.17943) " fill="rgb(62, 58, 57)" stroke="rgb(62, 58, 57)" stroke-width="0.122" data-glyph-w="51.107000000000006" data-glyph-h="95.57009000000001" data-glyph-ascender="76.14943000000001" data-glyph-descender="-19.42066"/></g></svg></g></g><g id="shape_QpfiCtjVXk" transform="translate(194.63,54.12477571380998) rotate(0,205.37,290.39291000000003) scale(1,1)" filter="" style="cursor: move; opacity: 1;"><g><svg xmlns="http://www.w3.org/2000/svg" xmlns:xlink="http://www.w3.org/1999/xlink" version="1.1" width="569.48" height="580.7858200000001" viewBox="0 0 569.48 580.7858200000001" data-parent="shape_QpfiCtjVXk"><g data-width="251.28542000000004" transform="translate(79.72728999999998, 0)"><path d="M50.80-9.45L50.80-9.45Q53.18-5.16 53.97-1.90L53.97-1.90Q52.46-0.63 45.96-0.63L45.96-0.63L40.95-0.71Q40.95-2.86 38.42-12.14L38.42-12.14Q38.10-13.33 37.46-15.75Q36.83-18.18 36.83-18.81L36.83-18.81Q36.59-18.81 34.05-18.65L34.05-18.65Q29.05-18.33 16.83-17.86L16.83-17.86Q15.72-14.68 14.68-10.87L14.68-10.87Q13.73-7.46 12.90-5.16Q12.06-2.86 10.64 0L10.64 0Q7.62 0.08 4.29-0.71Q0.95-1.51 0.32-2.14L0.32-2.14Q2.62-5.00 9.88-21.83Q17.14-38.65 22.86-52.86L22.86-52.86Q23.10-53.57 22.82-53.93Q22.54-54.29 21.75-54.84L21.75-54.84Q20.40-55.80 19.76-56.59L19.76-56.59Q20.64-56.99 22.70-57.23Q24.76-57.46 26.91-57.46L26.91-57.46Q31.91-57.46 32.22-56.27L32.22-56.27Q33.34-52.54 41.47-32.03Q49.61-11.51 50.80-9.45L50.80-9.45ZM33.41-28.18L33.41-28.18Q32.54-31.19 30.52-38.18Q28.49-45.16 28.10-46.11L28.10-46.11Q21.67-31.51 20.79-29.13L20.79-29.13L19.05-23.97Q20.16-23.89 21.99-23.89L21.99-23.89Q23.10-23.89 27.70-24.21L27.70-24.21L34.37-24.76L33.41-28.18ZM22.22-21.43L22.22-21.43Q21.27-21.59 20.79-21.99L20.79-21.99L19.92-21.99Q19.76-21.67 19.72-21.51Q19.68-21.35 19.53-21.27L19.53-21.27L19.53-20.95Q20.48-20.95 20.79-21.19L20.79-21.19L22.22-21.43ZM47.78-10.40L47.78-10.40Q47.78-10.64 47.86-10.71L47.86-10.71Q47.62-10.95 47.30-11.39Q46.99-11.83 46.83-11.98L46.83-11.98L46.03-11.98L45.80-11.67Q45.72-11.67 45.76-11.59Q45.80-11.51 45.80-11.35L45.80-11.35Q45.96-10.95 46.31-10.60Q46.67-10.24 46.83-9.92L46.83-9.92Q47.23-10.00 47.42-10.08Q47.62-10.16 47.78-10.40L47.78-10.40ZM50.16-6.91L50.16-6.91Q50.24-6.98 50.24-7.06Q50.24-7.14 50.16-7.38L50.16-7.38Q49.45-7.14 49.21-6.91Q48.97-6.67 48.65-6.03L48.65-6.03Q48.89-6.19 49.45-6.43Q50.00-6.67 50.16-6.91L50.16-6.91Z" transform="translate(0 320.89291000000003) " fill="#3e3a39" stroke="#3e3a39" stroke-width="0.132" data-glyph-w="55.559000000000005" data-glyph-h="103.89533000000002" data-glyph-ascender="82.78291000000002" data-glyph-descender="-21.112420000000004"/><path d="M34.61-21.67L34.61-21.67Q36.67-16.59 38.93-12.70Q41.19-8.81 45.96-3.81L45.96-3.81Q41.59-1.83 39.01-0.83Q36.43 0.16 35.16 0.16L35.16 0.16Q34.45 0.16 34.21 0L34.21 0Q33.02-0.63 31.11-6.35Q29.21-12.06 27.90-17.98Q26.59-23.89 27.07-24.13L27.07-24.13Q23.49-23.02 17.86-23.02L17.86-23.02Q15.56-23.02 13.97-23.18L13.97-23.18Q13.89-18.41 13.61-11.63Q13.33-4.84 13.10-1.98L13.10-1.98Q11.83-1.83 9.37-1.19L9.37-1.19Q5.71-0.24 5.00-0.48L5.00-0.48Q6.03-19.68 6.03-46.03L6.03-46.03L6.03-52.78Q6.51-53.42 9.05-54.21Q11.59-55.00 13.97-55.56L13.97-55.56Q14.13-55.64 13.97-53.81L13.97-53.81L13.89-51.91Q13.89-51.19 14.01-50.88Q14.13-50.56 14.37-50.80L14.37-50.80Q19.76-55.80 27.86-55.80L27.86-55.80Q30.72-55.80 33.38-55.12Q36.03-54.45 37.94-53.34L37.94-53.34Q41.59-51.19 43.46-47.78Q45.32-44.37 45.32-40.40L45.32-40.40Q45.32-35.00 42.07-30.60Q38.81-26.19 33.18-25.08L33.18-25.08L34.61-21.67ZM27.94-51.35L27.94-51.35Q27.94-51.35 27.54-50.96L27.54-50.96L30.00-50.96Q30.16-51.11 30.24-51.07Q30.32-51.03 30.40-51.35L30.40-51.35L27.94-51.35ZM14.21-28.89L14.21-28.89Q15.16-28.73 16.03-28.73L16.03-28.73Q18.97-28.73 22.82-29.61Q26.67-30.48 29.84-32.18Q33.02-33.89 33.97-36.35L33.97-36.35Q35.80-39.21 35.80-41.75L35.80-41.75Q35.80-45.32 32.58-47.50Q29.37-49.69 24.92-49.69L24.92-49.69Q21.83-49.69 19.05-48.53Q16.27-47.38 14.37-45.08L14.37-45.08Q14.13-44.76 13.97-42.19Q13.81-39.61 13.81-36.51L13.81-36.51Q13.81-30.56 14.21-28.89L14.21-28.89ZM8.33-12.62L8.33-12.62Q8.33-9.84 8.45-7.94Q8.57-6.03 9.05-4.76L9.05-4.76Q9.05-7.78 8.93-9.68Q8.81-11.59 8.33-12.62L8.33-12.62ZM33.65-5.64L33.65-5.64Q34.37-3.65 35.64-3.41L35.64-3.41Q35.88-3.73 35.95-4.52L35.95-4.52Q35.64-4.68 35.00-5.08Q34.37-5.48 33.65-5.64L33.65-5.64Z" transform="translate(55.559000000000005 320.89291000000003) " fill="#3e3a39" stroke="#3e3a39" stroke-width="0.132" data-glyph-w="51.590500000000006" data-glyph-h="103.89533000000002" data-glyph-ascender="82.78291000000002" data-glyph-descender="-21.112420000000004"/><path d="M8.10-38.57L8.10-38.57Q11.51-47.70 19.76-51.63Q28.02-55.56 40.40-55.56L40.40-55.56Q41.91-53.57 42.98-50.48Q44.05-47.38 44.05-45.32L44.05-45.32Q44.05-43.49 43.18-43.18L43.18-43.18Q42.07-44.53 38.42-45.52Q34.76-46.51 31.59-46.51L31.59-46.51Q29.84-46.51 28.81-46.11L28.81-46.11Q22.38-43.65 19.13-38.81Q15.87-33.97 15.87-28.18L15.87-28.18Q15.87-23.10 18.29-18.57Q20.72-14.05 25.20-11.23Q29.68-8.41 35.64-8.41L35.64-8.41Q41.27-8.41 47.07-10.87L47.07-10.87Q45.80-6.43 40.95-3.73Q36.11-1.03 30.16-1.03L30.16-1.03Q25.00-1.03 20.87-2.94L20.87-2.94Q13.41-6.27 9.60-12.42Q5.79-18.57 5.79-26.27L5.79-26.27Q5.79-32.62 8.10-38.57L8.10-38.57ZM26.35-52.23L26.35-52.23Q26.11-51.43 26.03-50.64L26.03-50.64Q26.51-50.48 26.99-50.48L26.99-50.48Q27.54-50.96 29.13-50.96L29.13-50.96Q29.37-51.27 29.53-51.83L29.53-51.83Q28.89-52.15 28.18-52.23L28.18-52.23Q28.02-52.30 27.66-52.38Q27.30-52.46 26.99-52.54L26.99-52.54Q26.75-52.30 26.35-52.23L26.35-52.23ZM12.62-25.48L12.62-25.48Q12.54-25.32 12.42-25.04Q12.30-24.76 12.22-24.13L12.22-24.13L12.62-24.13Q12.86-23.97 13.25-23.89L13.25-23.89Q13.49-24.45 13.57-25.00L13.57-25.00L13.25-25.48L12.62-25.48ZM40.80-7.30L40.80-7.30Q41.03-7.54 41.51-7.78L41.51-7.78L41.51-8.02L41.03-8.02Q41.11-8.10 40.16-7.30L40.16-7.30L40.80-7.30ZM31.91-4.52L31.91-4.52Q31.91-4.37 31.87-4.25Q31.83-4.13 31.91-3.81L31.91-3.81L32.54-3.65L32.70-4.37Q32.54-4.37 32.54-4.52L32.54-4.52L31.91-4.52Z" transform="translate(107.14950000000002 320.89291000000003) " fill="#3e3a39" stroke="#3e3a39" stroke-width="0.132" data-glyph-w="48.65381000000001" data-glyph-h="103.89533000000002" data-glyph-ascender="82.78291000000002" data-glyph-descender="-21.112420000000004"/><path d="M40.24-2.22L40.24-2.22Q39.61-2.06 37.07-1.47Q34.53-0.87 32.38-0.87L32.38-0.87Q31.43-0.87 30.95-0.95L30.95-0.95L31.75-25.16Q27.54-25.24 21.23-24.84Q14.92-24.45 12.30-24.13L12.30-24.13Q12.30-22.14 11.98-16.27L11.98-16.27Q11.59-6.75 11.59-3.10L11.59-3.10Q10.48-2.54 7.78-1.83Q5.08-1.11 3.49-1.11L3.49-1.11Q2.62-1.11 2.38-1.35L2.38-1.35Q3.65-20.24 3.65-36.67L3.65-36.67Q3.65-46.43 3.10-52.07L3.10-52.07Q3.10-52.46 5.56-53.50Q8.02-54.53 10.52-55.24Q13.02-55.96 12.94-55.56L12.94-55.56Q12.30-52.07 12.30-31.27L12.30-31.27Q15.16-31.27 18.93-31.55Q22.70-31.83 26.11-32.14L26.11-32.14Q26.99-32.22 31.99-32.70L31.99-32.70Q32.38-34.61 32.38-49.13L32.38-49.13L32.38-53.81Q33.65-54.21 37.07-54.92Q40.48-55.64 41.51-55.56L41.51-55.56Q41.43-51.75 40.95-39.84L40.95-39.84Q40.08-17.86 40.08-10.24L40.08-10.24Q40.08-4.52 40.24-2.22L40.24-2.22ZM32.70-29.45L32.70-29.45Q32.70-28.97 32.94-28.65Q33.18-28.34 33.49-28.18L33.49-28.18L32.70-29.45ZM13.89-26.91L13.89-26.91Q13.89-26.91 14.05-27.07L14.05-27.07Q13.97-27.22 13.93-27.26Q13.89-27.30 13.65-27.30L13.65-27.30L12.94-26.91L13.89-26.91Z" transform="translate(155.80331 320.89291000000003) " fill="#3e3a39" stroke="#3e3a39" stroke-width="0.132" data-glyph-w="43.89161000000001" data-glyph-h="103.89533000000002" data-glyph-ascender="82.78291000000002" data-glyph-descender="-21.112420000000004"/><path d="M15.64-32.38L15.64-32.38Q17.54-32.38 39.69-33.57L39.69-33.57L43.49-33.73Q44.45-32.54 45.40-30.28Q46.35-28.02 46.75-24.84L46.75-24.84Q45.40-24.92 40.60-25.04Q35.80-25.16 30.40-25.16L30.40-25.16Q20.79-25.16 15.56-24.68L15.56-24.68Q15.48-22.46 15.48-18.97L15.48-18.97Q15.48-15.24 15.32-12.22L15.32-12.22Q15.64-12.22 20.72-12.54L20.72-12.54Q22.14-12.62 28.53-13.02Q34.92-13.41 39.29-13.41L39.29-13.41Q43.65-13.41 44.61-12.94L44.61-12.94Q45.08-12.38 45.88-9.84Q46.67-7.30 46.67-5.95L46.67-5.95Q46.67-5.00 46.19-5.00L46.19-5.00Q38.57-5.95 27.46-5.95L27.46-5.95Q21.03-5.95 15.48-5.71L15.48-5.71L15.32-3.33Q14.92-3.17 13.18-2.54Q11.43-1.90 9.72-1.47Q8.02-1.03 6.67-1.03L6.67-1.03Q7.14-5.16 7.42-12.34Q7.70-19.53 7.70-27.38L7.70-27.38Q7.70-40.00 6.98-49.37L6.98-49.37Q6.83-51.19 6.03-53.02L6.03-53.02Q5.40-54.61 5.40-55.56L5.40-55.56Q5.40-56.51 15.64-52.38L15.64-52.38Q23.65-53.18 31.15-53.65Q38.65-54.13 42.46-54.13L42.46-54.13Q45.00-54.13 45.40-53.89L45.40-53.89Q46.27-53.34 47.03-51.19Q47.78-49.05 48.34-46.35L48.34-46.35Q43.18-46.83 33.81-46.83L33.81-46.83Q25.87-46.83 20.52-46.39Q15.16-45.96 15.64-45.08L15.64-45.08Q15.48-40.95 15.48-39.84L15.48-39.84L15.64-32.38ZM11.27-49.92L11.27-49.92Q12.06-49.29 13.65-49.29L13.65-49.29Q15.24-49.29 16.11-49.21L16.11-49.21L16.11-49.76Q15.72-49.92 14.92-49.92L14.92-49.92Q14.29-49.92 13.61-49.84Q12.94-49.76 12.38-49.76L12.38-49.76Q11.91-49.76 11.27-49.92L11.27-49.92ZM36.83-11.43L36.83-11.43Q36.67-11.27 36.27-11.15Q35.88-11.03 35.64-10.95L35.64-10.95L36.67-10.87Q37.70-10.87 38.02-11.43L38.02-11.43L36.83-11.43ZM22.30-10.16L22.30-10.16Q22.22-10.16 21.91-10.00Q21.59-9.84 21.43-9.68L21.43-9.68L25.24-9.68L25.56-10.00L25.56-10.16L22.30-10.16Z" transform="translate(199.69492000000002 320.89291000000003) " fill="#3e3a39" stroke="#3e3a39" stroke-width="0.132" data-glyph-w="51.590500000000006" data-glyph-h="103.89533000000002" data-glyph-ascender="82.78291000000002" data-glyph-descender="-21.112420000000004"/></g></svg></g></g><g id="shape_4R9sZWNCMW" transform="translate(342,346.98231428619) rotate(0,58,57.5) scale(1,1)" filter="" style="cursor: move; opacity: 1;"><g><svg xmlns="http://www.w3.org/2000/svg" xmlns:xlink="http://www.w3.org/1999/xlink" version="1.1" width="148" height="115" viewBox="0 0 148 115"><g data-width="83.5703125" transform="translate(16.21484375, 0)"><path d="M9.96-4.49L6.59-4.49L6.59-5.84L11.45-5.84L11.45-1.59Q10.33-0.70 9.14-0.25Q7.95 0.20 6.70 0.20L6.70 0.20Q5.02 0.20 3.64-0.53Q2.26-1.25 1.55-2.62Q0.85-3.98 0.85-5.67L0.85-5.67Q0.85-7.34 1.55-8.79Q2.25-10.24 3.56-10.95Q4.88-11.65 6.59-11.65L6.59-11.65Q7.83-11.65 8.83-11.25Q9.84-10.84 10.41-10.13Q10.98-9.41 11.27-8.25L11.27-8.25L9.91-7.88Q9.65-8.75 9.27-9.25Q8.88-9.75 8.17-10.05Q7.46-10.35 6.59-10.35L6.59-10.35Q5.55-10.35 4.80-10.04Q4.04-9.72 3.57-9.20Q3.11-8.69 2.85-8.07L2.85-8.07Q2.41-7.01 2.41-5.77L2.41-5.77Q2.41-4.23 2.94-3.20Q3.47-2.17 4.48-1.67Q5.48-1.17 6.62-1.17L6.62-1.17Q7.60-1.17 8.54-1.55Q9.48-1.93 9.96-2.36L9.96-2.36L9.96-4.49Z" transform="translate(0 63) " fill="#3e3a39" stroke="#3e3a39" stroke-width="0.027" data-glyph-w="12.4453125" data-glyph-h="17.875" data-glyph-ascender="14.484375" data-glyph-descender="-3.390625"/><path d="M2.77 0L1.26 0L1.26-11.45L6.34-11.45Q7.87-11.45 8.66-11.14Q9.46-10.84 9.94-10.05Q10.41-9.27 10.41-8.33L10.41-8.33Q10.41-7.11 9.63-6.27Q8.84-5.44 7.19-5.21L7.19-5.21Q7.79-4.92 8.10-4.64L8.10-4.64Q8.77-4.03 9.36-3.12L9.36-3.12L11.35 0L9.45 0L7.93-2.38Q7.27-3.41 6.84-3.96Q6.41-4.51 6.07-4.73Q5.73-4.95 5.38-5.03L5.38-5.03Q5.12-5.09 4.53-5.09L4.53-5.09L2.77-5.09L2.77 0ZM2.77-10.19L2.77-6.40L6.03-6.40Q7.07-6.40 7.66-6.61Q8.24-6.83 8.55-7.30Q8.85-7.77 8.85-8.33L8.85-8.33Q8.85-9.14 8.26-9.66Q7.67-10.19 6.40-10.19L6.40-10.19L2.77-10.19Z" transform="translate(12.4453125 63) " fill="#3e3a39" stroke="#3e3a39" stroke-width="0.027" data-glyph-w="11.5546875" data-glyph-h="17.875" data-glyph-ascender="14.484375" data-glyph-descender="-3.390625"/><path d="M1.59 0L-0.02 0L4.38-11.45L6.01-11.45L10.70 0L8.97 0L7.63-3.47L2.84-3.47L1.59 0ZM4.54-8.06L3.28-4.70L7.16-4.70L5.97-7.88Q5.42-9.32 5.16-10.25L5.16-10.25Q4.94-9.15 4.54-8.06L4.54-8.06Z" transform="translate(24 63) " fill="#3e3a39" stroke="#3e3a39" stroke-width="0.027" data-glyph-w="10.671875" data-glyph-h="17.875" data-glyph-ascender="14.484375" data-glyph-descender="-3.390625"/><path d="M2.75 0L1.23 0L1.23-11.45L5.55-11.45Q6.70-11.45 7.30-11.34L7.30-11.34Q8.14-11.20 8.71-10.81Q9.28-10.41 9.63-9.70Q9.98-8.99 9.98-8.14L9.98-8.14Q9.98-6.68 9.05-5.67Q8.12-4.66 5.69-4.66L5.69-4.66L2.75-4.66L2.75 0ZM2.75-10.10L2.75-6.01L5.71-6.01Q7.18-6.01 7.80-6.55Q8.41-7.10 8.41-8.09L8.41-8.09Q8.41-8.81 8.05-9.32Q7.69-9.84 7.09-10L7.09-10Q6.71-10.10 5.68-10.10L5.68-10.10L2.75-10.10Z" transform="translate(34.671875 63) " fill="#3e3a39" stroke="#3e3a39" stroke-width="0.027" data-glyph-w="10.671875" data-glyph-h="17.875" data-glyph-ascender="14.484375" data-glyph-descender="-3.390625"/><path d="M2.80 0L1.28 0L1.28-11.45L2.80-11.45L2.80-6.75L8.75-6.75L8.75-11.45L10.27-11.45L10.27 0L8.75 0L8.75-5.40L2.80-5.40L2.80 0Z" transform="translate(45.34375 63) " fill="#3e3a39" stroke="#3e3a39" stroke-width="0.027" data-glyph-w="11.5546875" data-glyph-h="17.875" data-glyph-ascender="14.484375" data-glyph-descender="-3.390625"/><path d="M3.01 0L1.49 0L1.49-11.45L3.01-11.45L3.01 0Z" transform="translate(56.8984375 63) " fill="#3e3a39" stroke="#3e3a39" stroke-width="0.027" data-glyph-w="4.4453125" data-glyph-h="17.875" data-glyph-ascender="14.484375" data-glyph-descender="-3.390625"/><path d="M9.41-4.02L9.41-4.02L10.92-3.63Q10.45-1.77 9.21-0.79Q7.97 0.20 6.18 0.20L6.18 0.20Q4.33 0.20 3.17-0.56Q2.01-1.31 1.40-2.74Q0.80-4.17 0.80-5.81L0.80-5.81Q0.80-7.60 1.48-8.93Q2.16-10.27 3.43-10.96Q4.69-11.65 6.20-11.65L6.20-11.65Q7.92-11.65 9.09-10.77Q10.27-9.90 10.73-8.31L10.73-8.31L9.23-7.96Q8.84-9.21 8.08-9.78Q7.32-10.35 6.17-10.35L6.17-10.35Q4.85-10.35 3.96-9.72Q3.08-9.09 2.72-8.02Q2.36-6.95 2.36-5.82L2.36-5.82Q2.36-4.36 2.79-3.27Q3.21-2.18 4.11-1.64Q5.01-1.10 6.05-1.10L6.05-1.10Q7.33-1.10 8.21-1.84Q9.09-2.57 9.41-4.02Z" transform="translate(61.34375 63) " fill="#3e3a39" stroke="#3e3a39" stroke-width="0.027" data-glyph-w="11.5546875" data-glyph-h="17.875" data-glyph-ascender="14.484375" data-glyph-descender="-3.390625"/><path d="M0.72-3.68L0.72-3.68L2.15-3.80Q2.25-2.95 2.62-2.39Q2.99-1.84 3.77-1.50Q4.55-1.16 5.53-1.16L5.53-1.16Q6.40-1.16 7.06-1.42Q7.73-1.68 8.05-2.13Q8.38-2.58 8.38-3.11L8.38-3.11Q8.38-3.65 8.06-4.05Q7.75-4.45 7.03-4.73L7.03-4.73Q6.57-4.91 4.99-5.29Q3.41-5.66 2.78-6L2.78-6Q1.96-6.43 1.56-7.07Q1.16-7.70 1.16-8.49L1.16-8.49Q1.16-9.36 1.65-10.11Q2.14-10.87 3.09-11.26Q4.03-11.65 5.19-11.65L5.19-11.65Q6.46-11.65 7.43-11.24Q8.41-10.83 8.93-10.03Q9.45-9.23 9.49-8.23L9.49-8.23L8.04-8.12Q7.92-9.20 7.25-9.76Q6.57-10.31 5.25-10.31L5.25-10.31Q3.88-10.31 3.25-9.81Q2.62-9.30 2.62-8.59L2.62-8.59Q2.62-7.98 3.06-7.58L3.06-7.58Q3.50-7.18 5.35-6.76Q7.20-6.34 7.88-6.03L7.88-6.03Q8.88-5.57 9.36-4.86Q9.84-4.16 9.84-3.23L9.84-3.23Q9.84-2.32 9.31-1.51Q8.79-0.70 7.81-0.25Q6.83 0.20 5.60 0.20L5.60 0.20Q4.05 0.20 3.00-0.26Q1.95-0.71 1.35-1.62Q0.75-2.53 0.72-3.68Z" transform="translate(72.8984375 63) " fill="#3e3a39" stroke="#3e3a39" stroke-width="0.027" data-glyph-w="10.671875" data-glyph-h="17.875" data-glyph-ascender="14.484375" data-glyph-descender="-3.390625"/></g></svg></g></g> <!----></svg>
